<svg xmlns="http://www.w3.org/2000/svg" width="166.2" height="226.5" viewBox="0 0 166.2 226.5"><path fill="#f0de7f" stroke="#70683f" stroke-linecap="round" stroke-linejoin="round" stroke-width="4" d="M82.9 224L162.8 3H3l79.9 221z"/><path fill="#70683f" d="M52 69l5.3-10.8-7.5-3.4-5.4 10.8-7.3-3.2 5.4-10.8-7.7-3.4 2.8-6.3 7.9 3.5 6.1-12.3-8.5-3.8 2.7-6.3 8.9 3.9 5.4-10.8 7.3 3.3L62 30.2l7.6 3.3 5.3-10.8 7.3 3.3-5.4 10.8 7.7 3.3-2.8 6.4-7.9-3.6-6.1 12.3 8.5 3.8-2.7 6.3-8.9-3.9-5.4 10.8zm8.4-17l6.1-12.3-7.6-3.3-6 12.2z"/></svg>