<svg xmlns="http://www.w3.org/2000/svg" width="186.1" height="186.1" viewBox="0 0 186.1 186.1"><circle cx="92.9" cy="92.9" r="88" fill="#bdffd9" stroke="#7ba68d" stroke-miterlimit="10" stroke-width="4"/><path fill="#bdffd9" stroke="#512500" stroke-linecap="round" stroke-linejoin="round" stroke-width="4" d="M35 50.8l10.8 7.3m24.6 82.4l-7.2 10.8m71.4-95l-7.2 10.8M158.1 97l7.3 8.2m-79.9 44l7.3 8.1m9.8-128.5l7.3 8.1m14.8 69.9l-13.4 11.3m47.3-60L146.3 75m-94.7 50.3l-12.3 16.9m46-75.5L93 73m38 64.3l7.7 6.4M24.1 92.9l16.3 8.2M70.1 97l-6.6 9.8m3.3-84.9l14.4 9"/></svg>